<svg width="800" height="800" viewBox="0 0 800 800" fill="none" xmlns="http://www.w3.org/2000/svg">
<path fill-rule="evenodd" clip-rule="evenodd" d="M400 100C408.84 100 417.32 103.512 423.57 109.763L656.903 343.097C669.92 356.113 669.92 377.22 656.903 390.237C643.887 403.253 622.78 403.253 609.763 390.237L433.333 213.807V666.667C433.333 685.077 418.41 700 400 700C381.59 700 366.667 685.077 366.667 666.667V213.807L190.237 390.237C177.219 403.253 156.114 403.253 143.096 390.237C130.079 377.22 130.079 356.113 143.096 343.097L376.43 109.763C382.68 103.512 391.16 100 400 100Z" fill="#FF0000"/>
</svg>
