<svg width="777" height="800" viewBox="0 0 777 800" fill="none" xmlns="http://www.w3.org/2000/svg">
<path fill-rule="evenodd" clip-rule="evenodd" d="M377 100C385.84 100 394.32 103.512 400.57 109.763L633.903 343.097C646.92 356.113 646.92 377.22 633.903 390.237C620.887 403.253 599.78 403.253 586.763 390.237L410.333 213.807V666.667C410.333 685.077 395.41 700 377 700C358.59 700 343.667 685.077 343.667 666.667V213.807L167.237 390.237C154.219 403.253 133.114 403.253 120.096 390.237C107.079 377.22 107.079 356.113 120.096 343.097L353.43 109.763C359.68 103.512 368.16 100 377 100Z" fill="#1D8F00"/>
</svg>
